<svg width="14" height="15" viewBox="0 0 14 15" fill="none" xmlns="http://www.w3.org/2000/svg">
<path d="M1.33569 8.66839C1.20953 8.66882 1.08584 8.63345 0.97899 8.56638C0.872139 8.49931 0.786511 8.4033 0.732055 8.2895C0.677599 8.1757 0.65655 8.04878 0.671355 7.9235C0.686159 7.79821 0.736208 7.6797 0.815688 7.58173L7.41569 0.781726C7.4652 0.72458 7.53266 0.685964 7.60701 0.672215C7.68136 0.658466 7.75817 0.670401 7.82484 0.706062C7.89151 0.741723 7.94408 0.798991 7.97391 0.868465C8.00375 0.937939 8.00907 1.01549 7.98902 1.08839L6.70902 5.10173C6.67128 5.20274 6.6586 5.31141 6.67208 5.4184C6.68556 5.52539 6.7248 5.62751 6.78642 5.71601C6.84804 5.80451 6.9302 5.87674 7.02587 5.9265C7.12154 5.97626 7.22785 6.00208 7.33569 6.00173H12.0024C12.1285 6.0013 12.2522 6.03667 12.3591 6.10374C12.4659 6.17081 12.5515 6.26682 12.606 6.38062C12.6604 6.49442 12.6815 6.62134 12.6667 6.74662C12.6519 6.87191 12.6018 6.99042 12.5224 7.08839L5.92236 13.8884C5.87285 13.9455 5.80538 13.9842 5.73103 13.9979C5.65669 14.0117 5.57987 13.9997 5.5132 13.9641C5.44653 13.9284 5.39396 13.8711 5.36413 13.8017C5.3343 13.7322 5.32897 13.6546 5.34902 13.5817L6.62902 9.56839C6.66677 9.46738 6.67944 9.35871 6.66596 9.25172C6.65248 9.14473 6.61325 9.04261 6.55163 8.95411C6.49001 8.86561 6.40784 8.79338 6.31217 8.74362C6.2165 8.69386 6.11019 8.66804 6.00236 8.66839H1.33569Z" stroke="#EAB308" stroke-width="1.33333" stroke-linecap="round" stroke-linejoin="round"/>
</svg>
