<svg width="16" height="16" viewBox="0 0 16 16" fill="none" xmlns="http://www.w3.org/2000/svg">
<path d="M9.33325 11.3333H3.33325" stroke="#9CA3AF" stroke-width="1.33333" stroke-linecap="round" stroke-linejoin="round"/>
<path d="M12.6667 4.66666H6.66675" stroke="#9CA3AF" stroke-width="1.33333" stroke-linecap="round" stroke-linejoin="round"/>
<path d="M11.3333 13.3333C12.4378 13.3333 13.3333 12.4379 13.3333 11.3333C13.3333 10.2288 12.4378 9.33334 11.3333 9.33334C10.2287 9.33334 9.33325 10.2288 9.33325 11.3333C9.33325 12.4379 10.2287 13.3333 11.3333 13.3333Z" stroke="#9CA3AF" stroke-width="1.33333" stroke-linecap="round" stroke-linejoin="round"/>
<path d="M4.66675 6.66666C5.77132 6.66666 6.66675 5.77123 6.66675 4.66666C6.66675 3.56209 5.77132 2.66666 4.66675 2.66666C3.56218 2.66666 2.66675 3.56209 2.66675 4.66666C2.66675 5.77123 3.56218 6.66666 4.66675 6.66666Z" stroke="#9CA3AF" stroke-width="1.33333" stroke-linecap="round" stroke-linejoin="round"/>
</svg>
